<svg width="47" height="33" viewBox="0 0 47 33" fill="none" xmlns="http://www.w3.org/2000/svg">
<path d="M10.8124 32.4346C16.7743 32.4346 21.6248 27.5854 21.6248 21.6251C21.6248 18.7749 20.5248 16.0855 18.5275 14.0522C16.5347 12.0236 13.8729 10.8752 11.0319 10.8184L10.9494 10.8163C9.95341 10.7863 9.12698 11.5758 9.10103 12.5704C9.07508 13.5651 9.8607 14.3924 10.8556 14.4183L10.9554 14.4208C14.8512 14.4962 18.0206 17.7282 18.0206 21.6251C18.0206 25.5987 14.787 28.8314 10.8124 28.8314C6.83773 28.8314 3.6041 25.5987 3.6041 21.6251C3.6041 16.6619 4.78482 12.0821 7.11372 8.0128C8.85424 4.97129 10.6242 3.36473 10.6573 3.335C11.3996 2.67625 11.4693 1.54054 10.8121 0.795856C10.4559 0.392394 9.95918 0.186202 9.4601 0.186202C9.03652 0.18629 8.61114 0.334742 8.26857 0.636956C8.18144 0.713883 6.11096 2.56005 4.07282 6.07187C2.21471 9.27328 -2.70481e-05 14.5705 -2.7665e-05 21.6251C-2.81862e-05 27.5855 4.85041 32.4346 10.8124 32.4346Z" fill="#03702D"/>
<path d="M35.3204 32.4346C41.2824 32.4346 46.1328 27.5855 46.1328 21.6251C46.1328 18.7749 45.0328 16.0855 43.0356 14.052C41.0428 12.0233 38.381 10.875 35.54 10.8182L35.4575 10.8161C34.4636 10.7861 33.635 11.5756 33.6091 12.5702C33.5832 13.5649 34.3688 14.3921 35.3637 14.4181L35.4634 14.4206C39.3592 14.4961 42.5287 17.7281 42.5287 21.6251C42.5287 25.5986 39.2951 28.8314 35.3204 28.8314C31.3458 28.8314 28.1122 25.5986 28.1122 21.6251C28.1122 16.6619 29.2929 12.0821 31.6218 8.01282C33.3623 4.9713 35.1323 3.36474 35.1654 3.33501C35.9077 2.67617 35.9774 1.54054 35.3202 0.795857C34.964 0.392302 34.4673 0.186202 33.9682 0.186202C33.5446 0.186202 33.1192 0.334651 32.7766 0.636866C32.6895 0.713794 30.6189 2.55997 28.5808 6.0718C26.7228 9.27321 24.5081 14.5703 24.5081 21.6251C24.5081 27.5855 29.3585 32.4346 35.3204 32.4346Z" fill="#03702D"/>
</svg>
