<?xml version="1.0" encoding="UTF-8" standalone="no"?>
<svg
   width="75"
   height="50"
   viewBox="0 0 75 50"
   fill="none"
   version="1.1"
   id="svg4"
   sodipodi:docname="Make the deal final icon.svg"
   inkscape:version="1.1 (1:1.1+202105261517+ce6663b3b7)"
   xmlns:inkscape="http://www.inkscape.org/namespaces/inkscape"
   xmlns:sodipodi="http://sodipodi.sourceforge.net/DTD/sodipodi-0.dtd"
   xmlns="http://www.w3.org/2000/svg"
   xmlns:svg="http://www.w3.org/2000/svg">
  <defs
     id="defs8" />
  <sodipodi:namedview
     id="namedview6"
     pagecolor="#ffffff"
     bordercolor="#999999"
     borderopacity="1"
     inkscape:pageshadow="0"
     inkscape:pageopacity="0"
     inkscape:pagecheckerboard="0"
     showgrid="false"
     inkscape:zoom="1.8516667"
     inkscape:cx="-34.023402"
     inkscape:cy="25.922592"
     inkscape:window-width="1280"
     inkscape:window-height="969"
     inkscape:window-x="0"
     inkscape:window-y="25"
     inkscape:window-maximized="1"
     inkscape:current-layer="svg4" />
  <circle
     style="fill:#ebf7ef;fill-rule:evenodd;stroke-width:3.13703;stroke-linecap:round"
     id="path854"
     cx="37.302734"
     cy="24.868504"
     r="22.579168" />
  <g
     id="g830"
     transform="matrix(0.33333333,0,0,0.33333333,24.86849,16.579002)">
    <g
       id="g826">
      <path
         d="M 19.2396,10.422 C 19.1956,9.65465 19.0094,8.89438 18.678,8.1746 v -4e-5 C 17.9785,6.65707 16.7277,5.50642 15.157,4.93595 c 0,-10e-6 0,-10e-6 0,-2e-5 L 2.69172,0.40236 c -5e-5,-1.8e-5 -1e-4,-3.6e-5 -1.5e-4,-5.4e-5 C 2.19335,0.219276 1.63343,0.294185 1.20068,0.598011 0.764811,0.90353 0.505469,1.40135 0.505469,1.93272 V 32.5138 c 0,0.9004 0.728691,1.6291 1.629101,1.6291 h 4.46618 c 1.89731,0 3.66405,-0.8791 4.82615,-2.3041 0.592,0.4497 1.284,0.9699 2.008,1.5135 0.0994,0.0748 0.1994,0.1501 0.2997,0.2255 1.7001,1.2787 3.4839,2.6205 4.2908,3.2968 v 0 c 5.6947,4.7672 12.5431,9.9172 13.9111,10.8163 h 10e-5 c 0.6449,0.4234 1.5445,0.8584 2.5016,1.1876 0.9565,0.3291 1.9775,0.555 2.8646,0.555 h 0.006 c 0.674,0 2.3888,0 3.6204,-1.0055 1.2531,0.4759 2.6004,0.4441 3.8532,-0.1081 1.2443,-0.5482 2.2531,-1.5715 2.8523,-2.8155 1.1994,0.2265 2.5623,0.038 3.7983,-0.5822 1.1605,-0.581 2.025,-1.4566 2.5019,-2.4851 1.1125,0.0826 2.2888,-0.2885 3.3391,-1.0923 1.5156,-1.1585 2.2233,-2.8656 2.0495,-4.5595 l 3.7441,-2.0714 c 1.1564,1.5232 2.9657,2.4869 4.9371,2.4869 h 4.4662 c 0.9004,0 1.6291,-0.7287 1.6291,-1.6291 V 4.99093 C 74.1002,4.45947 73.8408,3.96165 73.4051,3.65626 72.971,3.35092 72.4141,3.27587 71.9144,3.46045 Z m 0,0 C 20.5333,10.3411 22.113,10.2053 23.7837,10.0579 26.4551,9.82248 29.1773,9.58885 31.1621,9.54787 33.12,8.05878 35.2466,6.9308 37.635,6.5605 c 2.4006,-0.3722 5.0563,0.02249 8.0594,1.5699 3.887,2.0027 7.7992,3.2639 9.9578,3.8818 0.0761,-0.2591 0.1578,-0.5234 0.2759,-0.7797 l 0.0908,0.0418 -0.0908,-0.0418 c 0.6995,-1.51737 1.9504,-2.66802 3.5209,-3.23863 0,-1e-5 0,-1e-5 0,-2e-5 L 71.9139,3.46064 Z M 9.46472,29.0003 9.37109,28.9652 15.8023,11.8141 c 0.2789,-0.744 0.2499,-1.5525 -0.0837,-2.27477 l -10e-5,-1.6e-4 C 15.3864,8.81699 14.7916,8.26978 14.0431,7.99661 Z m 0,0 -0.09364,-0.0351 c -0.43031,1.148 -1.54421,1.9196 -2.77033,1.9196 H 3.76353 m 5.70119,-1.8845 -5.70119,1.8845 m 0,0 V 4.25856 L 14.043,7.99658 Z m 49.89307,8.1276 c 0.0171,0.0136 0.0292,0.0305 0.0414,0.0475 0.0103,0.0144 0.0206,0.0289 0.034,0.0414 z m 0,0 c -1.093,-0.8631 -5.9908,-5.8743 -9.0175,-9.031 z M 38.1106,17.404 c 0.5913,-0.3151 1.3245,-0.2076 1.8023,0.2673 1.7337,1.7335 4.4424,3.9659 7.3108,6.3297 z m 0,0 c -1.5575,0.8347 -2.2592,1.1796 -4.0182,1.3557 z m 17.186,21.3527 -10e-5,10e-5 c -0.2497,0.1914 -0.5476,0.3387 -0.8177,0.3996 -0.2748,0.062 -0.4925,0.0294 -0.6171,-0.0952 l -0.0707,0.0707 0.0707,-0.0707 C 53.8348,39.0343 53.8022,39.0245 53.7942,39.0218 53.7903,39.017 53.7853,39.0101 53.7765,38.9979 53.7653,38.9822 53.7468,38.9563 53.7189,38.9342 l -3e-4,-3e-4 c -0.5405,-0.4268 -2.0328,-1.8897 -3.7746,-3.6473 -1.7389,-1.7548 -3.7196,-3.7963 -5.2326,-5.3743 -0.6218,-0.6504 -1.6543,-0.6748 -2.3023,-0.0493 -0.6504,0.6221 -0.6727,1.653 -0.0491,2.3021 0.7049,0.7358 6.3404,6.6052 8.6553,8.7216 -0.1792,0.5947 -0.741,0.9723 -1.041,1.1227 -0.4757,0.2386 -0.9602,0.3372 -1.3698,0.3338 -0.414,-0.0035 -0.7354,-0.1105 -0.9004,-0.2639 -0.0123,-0.0114 -0.0248,-0.0186 -0.0345,-0.0232 -0.0018,-8e-4 -0.0035,-0.0016 -0.0051,-0.0023 -0.0023,-0.001 -0.0044,-0.0019 -0.0064,-0.0026 -8e-4,-0.0013 -0.0018,-0.0026 -0.003,-0.0043 l -7e-4,-10e-4 C 47.6476,42.0361 47.6335,42.0158 47.6117,41.9983 46.7005,41.2705 45.0964,39.6868 43.586,38.139 42.0772,36.5929 40.6676,35.0885 40.1478,34.5232 39.5383,33.8597 38.5091,33.8186 37.8459,34.4262 l -2e-4,10e-5 c -0.6615,0.6092 -0.7063,1.6401 -0.0968,2.302 l 1e-4,1e-4 c 0.0489,0.053 4.502,4.8567 7.0475,7.1385 -0.2482,0.6642 -0.7268,1.2072 -1.3298,1.4733 l -2e-4,10e-5 c -0.4523,0.2009 -1.1629,0.3086 -1.9862,-0.2984 -2.1912,-1.8586 -6.5902,-6.541 -7.4582,-7.4701 C 33.4094,36.913 32.3755,36.88 31.72,37.4939 c -0.657,0.6141 -0.692,1.645 -0.0779,2.3021 1.0043,1.0748 3.9304,4.1764 6.2202,6.3535 -0.1871,0.0167 -0.377,0.0259 -0.5595,0.0259 -0.4895,0 -1.165,-0.1573 -1.8327,-0.3899 -0.6663,-0.2321 -1.313,-0.535 -1.7438,-0.8181 -1.0674,-0.7018 -7.7956,-5.722 -13.6075,-10.589 -0.8821,-0.7399 -2.8918,-2.2517 -4.7272,-3.6303 v -10e-5 c -0.956,-0.7176 -1.8384,-1.3805 -2.5002,-1.8887 l 5.6759,-15.1378 c 1.4811,-0.0671 3.4372,-0.2364 5.5024,-0.4185 1.0946,-0.0964 2.1901,-0.1907 3.244,-0.274 -0.84,0.8811 -1.8385,2.0602 -2.6106,3.3739 -0.8281,1.4089 -1.4027,2.9844 -1.2283,4.5182 v 10e-5 c 0.1606,1.4007 0.9278,2.5659 2.2131,3.369 1.2817,0.8021 3.0945,0.8604 4.8558,0.3816 1.7508,-0.4759 3.4708,-1.4873 4.6005,-2.8607 1.4014,-0.2062 2.3654,-0.5652 3.3995,-1.0735 1.788,1.6756 4.1699,3.6388 6.6672,5.6971 l 0.0051,0.0042 0.0636,-0.0772 -0.0636,0.0772 c 2.197,1.8101 4.5384,3.7393 6.4951,5.5035 1.9605,1.7675 3.5223,3.3585 4.1717,4.4929 v 1e-4 c 0.3483,0.608 0.2797,1.1228 0.0887,1.5179 -0.1937,0.4008 -0.5159,0.682 -0.6749,0.8034 z m 2.7115,-4.9675 C 56.9808,32.4337 55.3838,30.8606 53.5185,29.1931 51.62,27.496 49.4386,25.6966 47.2873,23.9238 c -2.87,-2.3651 -5.5742,-4.5939 -7.3037,-6.3232 l -2e-4,-2e-4 c -0.5089,-0.5058 -1.2897,-0.6205 -1.9198,-0.2847 l -3e-4,10e-5 c -0.7796,0.4178 -1.3381,0.7092 -1.9201,0.9189 -0.5802,0.2091 -1.1869,0.338 -2.0608,0.4255 l -2e-4,10e-5 c -0.4993,0.0508 -0.9478,0.3276 -1.2152,0.7524 -0.5828,0.9246 -1.6922,1.6158 -2.7956,1.9932 -0.5503,0.1882 -1.094,0.2967 -1.5628,0.3179 -0.4721,0.0214 -0.8543,-0.0462 -1.0931,-0.1953 -0.2895,-0.1815 -0.4564,-0.3606 -0.5551,-0.5238 -0.0985,-0.1628 -0.1328,-0.316 -0.1482,-0.4524 v -10e-5 c -0.0701,-0.6169 0.208,-1.4811 0.7892,-2.4754 0.5786,-0.9898 1.4482,-2.0925 2.5359,-3.181 2.7008,-2.7008 5.0051,-4.3032 7.2486,-4.91474 2.238,-0.61005 4.4297,-0.23753 6.916,1.04454 l 0.0459,-0.0888 -0.0458,0.0888 c 4.7174,2.4323 9.3727,3.8172 11.3782,4.353 0.0094,0.0393 0.0185,0.0792 0.0278,0.1195 0.039,0.1702 0.0798,0.348 0.1439,0.5193 v 10e-5 l 5.9068,15.7522 z m 0.8788,-21.1918 1e-4,-10e-5 c 0.3322,-0.7223 0.9271,-1.2695 1.6755,-1.5427 L 70.8419,7.31662 V 33.9429 h -2.837 c -1.2262,0 -2.3401,-0.7716 -2.7704,-1.9196 L 58.8032,14.8738 c -0.2788,-0.7456 -0.2499,-1.5541 0.0837,-2.2764 z"
         fill="#03702d"
         stroke="#03702d"
         stroke-width="0.2"
         id="path2" />
    </g>
  </g>
</svg>
