<svg width="47" height="33" viewBox="0 0 47 33" fill="none" xmlns="http://www.w3.org/2000/svg">
<path d="M35.3204 0.155273C29.3585 0.155273 24.5081 5.00448 24.5081 10.9649C24.5081 13.8151 25.608 16.5046 27.6053 18.5379C29.5981 20.5666 32.2599 21.715 35.1009 21.7718L35.1834 21.7738C36.1794 21.8038 37.0058 21.0144 37.0318 20.0197C37.0577 19.025 36.2721 18.1977 35.2772 18.1718L35.1774 18.1693C31.2817 18.094 28.1122 14.8619 28.1122 10.9649C28.1122 6.99129 31.3458 3.75849 35.3204 3.75849C39.2951 3.75849 42.5287 6.99129 42.5287 10.9649C42.5287 15.9282 41.348 20.508 39.0191 24.5774C37.2786 27.619 35.5086 29.2256 35.4755 29.2553C34.7332 29.914 34.6635 31.0498 35.3207 31.7945C35.6769 32.1979 36.1736 32.4041 36.6727 32.4041C37.0963 32.404 37.5217 32.2556 37.8642 31.9534C37.9514 31.8764 40.0218 30.0302 42.06 26.5184C43.9181 23.3169 46.1328 18.0196 46.1328 10.9649C46.1328 5.00439 41.2824 0.155273 35.3204 0.155273Z" fill="#03702D"/>
<path d="M10.8124 0.155273C4.85043 0.155273 0 5.0044 0 10.9649C0 13.8152 1.09998 16.5046 3.09721 18.5381C5.09002 20.5668 7.75184 21.7152 10.5928 21.772L10.6753 21.7741C11.6692 21.8041 12.4978 21.0146 12.5237 20.0199C12.5497 19.0253 11.764 18.198 10.7691 18.172L10.6694 18.1695C6.77359 18.094 3.60413 14.8619 3.60413 10.9649C3.60413 6.99131 6.83775 3.7585 10.8124 3.7585C14.787 3.7585 18.0206 6.99131 18.0206 10.9649C18.0206 15.9282 16.8399 20.5081 14.511 24.5774C12.7705 27.619 11.0005 29.2255 10.9674 29.2553C10.2251 29.9141 10.1554 31.0498 10.8126 31.7945C11.1688 32.198 11.6656 32.4041 12.1646 32.4041C12.5882 32.4041 13.0136 32.2557 13.3563 31.9535C13.4433 31.8765 15.5139 30.0303 17.552 26.5184C19.41 23.317 21.6248 18.0198 21.6248 10.9649C21.6248 5.0044 16.7743 0.155273 10.8124 0.155273Z" fill="#03702D"/>
</svg>
