<?xml version="1.0" encoding="UTF-8" standalone="no"?>
<svg
   width="58"
   height="57"
   viewBox="0 0 58 57"
   fill="none"
   version="1.1"
   id="svg6"
   sodipodi:docname="Sign up to csestates icon.svg"
   inkscape:version="1.1 (1:1.1+202105261517+ce6663b3b7)"
   xmlns:inkscape="http://www.inkscape.org/namespaces/inkscape"
   xmlns:sodipodi="http://sodipodi.sourceforge.net/DTD/sodipodi-0.dtd"
   xmlns="http://www.w3.org/2000/svg"
   xmlns:svg="http://www.w3.org/2000/svg">
  <defs
     id="defs10" />
  <sodipodi:namedview
     id="namedview8"
     pagecolor="#ffffff"
     bordercolor="#999999"
     borderopacity="1"
     inkscape:pageshadow="0"
     inkscape:pageopacity="0"
     inkscape:pagecheckerboard="0"
     showgrid="false"
     inkscape:zoom="6.5614035"
     inkscape:cx="22.251337"
     inkscape:cy="45.264706"
     inkscape:window-width="1280"
     inkscape:window-height="969"
     inkscape:window-x="0"
     inkscape:window-y="25"
     inkscape:window-maximized="1"
     inkscape:current-layer="svg6" />
  <g
     id="g941"
     transform="matrix(0.33333333,0,0,0.33333333,19.486703,19.115892)">
    <circle
       style="fill:#ebf7ef;fill-rule:evenodd;stroke-width:5.8304;stroke-linecap:round"
       id="path853"
       cx="29.230055"
       cy="28.673838"
       r="67.737503" />
    <g
       id="g829">
      <path
         d="M 29.0193,3.1272 H 12.4602 c -5.52285,0 -9.99999,4.47715 -9.99999,10 V 44.559 c 0,5.5229 4.47715,10 9.99999,10 h 33.5397 c 5.5228,0 10,-4.4771 10,-10 V 29.6863"
         stroke="#03702d"
         stroke-width="4"
         stroke-linecap="round"
         id="path2" />
      <path
         d="M 47.9901,15.0249 53.3405,9.60022 C 54.1123,8.81764 54.108,7.55882 53.3307,6.78158 L 49.4139,2.86478 C 48.6291,2.07998 47.3554,2.08431 46.5759,2.87444 L 17.5333,32.3149 c -0.2093,0.2122 -0.3686,0.4686 -0.4661,0.7503 l -2.9109,8.4092 c -0.2833,0.8184 0.537,1.5855 1.3346,1.2481 l 8.5254,-3.6069 c 0.2414,-0.1022 0.4605,-0.2508 0.6446,-0.4375 z m 0,0 -6.7452,-6.41725"
         stroke="#03702d"
         stroke-width="3"
         id="path4" />
    </g>
  </g>
</svg>
